<?xml version="1.0" standalone="no"?>
<!DOCTYPE svg PUBLIC "-//W3C//DTD SVG 20010904//EN"
 "http://www.w3.org/TR/2001/REC-SVG-20010904/DTD/svg10.dtd">
<svg version="1.0" xmlns="http://www.w3.org/2000/svg"
 width="512.000000pt" height="512.000000pt" viewBox="0 0 512.000000 512.000000"
 preserveAspectRatio="xMidYMid meet">

<g transform="translate(0.000000,512.000000) scale(0.100000,-0.100000)"
fill="#000000" stroke="none">
<path d="M2380 5109 c-1175 -84 -2142 -961 -2340 -2122 -138 -814 128 -1646
714 -2233 588 -588 1417 -852 2236 -713 1064 180 1908 1024 2089 2089 139 818
-126 1648 -713 2236 -447 446 -1006 699 -1644 743 -167 12 -173 12 -342 0z
m695 -1172 c55 -31 94 -90 102 -154 l6 -52 317 -3 317 -3 41 -28 c63 -41 95
-97 100 -172 2 -35 -1 -80 -8 -100 -16 -48 -63 -101 -114 -128 l-41 -22 -1235
0 -1235 0 -41 22 c-51 27 -98 80 -114 128 -7 20 -10 65 -8 100 5 75 37 131
100 172 l41 28 317 3 317 3 6 52 c8 64 47 123 102 154 40 23 41 23 515 23 474
0 475 0 515 -23z m653 -1675 l-3 -939 -30 -49 c-19 -30 -49 -60 -79 -79 l-49
-30 -1007 0 -1007 0 -49 30 c-30 19 -60 49 -79 79 l-30 49 -3 939 -2 938 1170
0 1170 0 -2 -938z"/>
<path d="M1841 2914 c-21 -26 -21 -34 -21 -691 l0 -664 25 -24 c23 -23 31 -25
130 -25 99 0 107 2 130 25 l25 24 0 664 c0 798 18 717 -155 717 -111 0 -114
-1 -134 -26z"/>
<path d="M2431 2921 c-11 -11 -23 -35 -26 -53 -3 -18 -5 -320 -3 -670 l3 -636
24 -26 c23 -25 29 -26 131 -26 102 0 108 1 131 26 l24 26 3 636 c2 350 0 652
-3 670 -11 63 -31 72 -155 72 -96 0 -113 -3 -129 -19z"/>
<path d="M3011 2914 c-21 -26 -21 -34 -21 -691 l0 -664 25 -24 c23 -23 31 -25
130 -25 99 0 107 2 130 25 l25 24 0 664 c0 798 18 717 -155 717 -111 0 -114
-1 -134 -26z"/>
</g>
</svg>
